ffmpeg started on 2016-11-28 at 03:23:12
Report written to "Output/NVENCh264/results/ffmpeg/sintelllhp8000k.log"
Command line:
Tools/ffmpeg/ffmpeg -benchmark -y -i Input/y4m/sintel.y4m -c:v h264_nvenc -preset llhp -b:v 8000k -an Output/NVENCh264/encoded/sintelllhp8000k.mkv
ffmpeg version N-82227-gdb23fde Copyright (c) 2000-2016 the FFmpeg developers
  built with gcc 5.4.0 (Ubuntu 5.4.0-6ubuntu1~16.04.2) 20160609
  configuration: --prefix=/home/jaroslav/ffmpeg_build --pkg-config-flags=--static --extra-cflags=-I/home/jaroslav/ffmpeg_build/include --extra-ldflags=-L/home/jaroslav/ffmpeg_build/lib --bindir=/home/jaroslav/bin --enable-gpl --enable-libass --enable-libfdk-aac --enable-libfreetype --enable-libmp3lame --enable-libopus --enable-libtheora --enable-libvorbis --enable-libvpx --enable-libx264 --enable-libx265 --enable-nvenc --enable-libmfx --enable-libxvid --enable-libgsm --enable-libopencore-amrnb --enable-version3 --enable-nonfree
  libavutil      55. 35.100 / 55. 35.100
  libavcodec     57. 66.101 / 57. 66.101
  libavformat    57. 57.100 / 57. 57.100
  libavdevice    57.  2.100 / 57.  2.100
  libavfilter     6. 66.100 /  6. 66.100
  libswscale      4.  3.100 /  4.  3.100
  libswresample   2.  4.100 /  2.  4.100
  libpostproc    54.  2.100 / 54.  2.100
Input #0, yuv4mpegpipe, from 'Input/y4m/sintel.y4m':
  Duration: 00:00:20.83, start: 0.000000, bitrate: 2057307 kb/s
    Stream #0:0: Video: rawvideo (I420 / 0x30323449), yuv420p(progressive), 4096x1744, SAR 1:1 DAR 256:109, 24 fps, 24 tbr, 24 tbn, 24 tbc
[h264_nvenc @ 0x31011c0] The variable bitrate rate-control requires the 'qmin' and/or 'qmax' option set.
Output #0, matroska, to 'Output/NVENCh264/encoded/sintelllhp8000k.mkv':
  Metadata:
    encoder         : Lavf57.57.100
    Stream #0:0: Video: h264 (h264_nvenc) (Main) (H264 / 0x34363248), yuv420p, 4096x1744 [SAR 1:1 DAR 256:109], q=-1--1, 8000 kb/s, 24 fps, 1k tbn, 24 tbc
    Metadata:
      encoder         : Lavc57.66.101 h264_nvenc
    Side data:
      cpb: bitrate max/min/avg: 0/0/8000000 buffer size: 16000000 vbv_delay: -1
Stream mapping:
  Stream #0:0 -> #0:0 (rawvideo (native) -> h264 (h264_nvenc))
Press [q] to stop, [?] for help
frame=   21 fps=0.0 q=0.0 size=       0kB time=00:00:00.00 bitrate=N/A speed=   0x    frame=   42 fps= 41 q=37.0 size=       1kB time=00:00:00.45 bitrate=  13.0kbits/s speed=0.449x    frame=   63 fps= 41 q=36.0 size=       1kB time=00:00:01.33 bitrate=   4.5kbits/s speed=0.87x    frame=   84 fps= 41 q=35.0 size=       1kB time=00:00:02.20 bitrate=   2.7kbits/s speed=1.08x    frame=  105 fps= 41 q=35.0 size=       1kB time=00:00:03.08 bitrate=   1.9kbits/s speed=1.21x    frame=  126 fps= 41 q=32.0 size=       1kB time=00:00:03.95 bitrate=   1.5kbits/s speed=1.29x    frame=  147 fps= 41 q=33.0 size=    4491kB time=00:00:04.83 bitrate=7610.9kbits/s speed=1.34x    frame=  168 fps= 41 q=34.0 size=    4491kB time=00:00:05.70 bitrate=6444.4kbits/s speed=1.39x    frame=  179 fps= 23 q=34.0 size=    4491kB time=00:00:06.16 bitrate=5964.8kbits/s speed=0.789x    frame=  180 fps= 16 q=34.0 size=    4491kB time=00:00:06.20 bitrate=5925.4kbits/s speed=0.542x    frame=  181 fps= 15 q=34.0 size=    4491kB time=00:00:06.25 bitrate=5885.6kbits/s speed=0.518x    frame=  202 fps= 16 q=31.0 size=    4491kB time=00:00:07.12 bitrate=5162.9kbits/s speed=0.566x    frame=  223 fps= 17 q=31.0 size=    4491kB time=00:00:08.00 bitrate=4598.3kbits/s speed=0.61x    frame=  244 fps= 18 q=33.0 size=    4491kB time=00:00:08.87 bitrate=4145.0kbits/s speed=0.652x    frame=  257 fps= 18 q=33.0 size=    4491kB time=00:00:09.41 bitrate=3906.5kbits/s speed=0.666x    frame=  277 fps= 19 q=29.0 size=    9429kB time=00:00:10.25 bitrate=7534.8kbits/s speed= 0.7x    frame=  298 fps= 20 q=33.0 size=   10604kB time=00:00:11.12 bitrate=7807.6kbits/s speed=0.734x    frame=  319 fps= 20 q=31.0 size=   10604kB time=00:00:12.00 bitrate=7238.3kbits/s speed=0.766x    frame=  340 fps= 21 q=27.0 size=   10604kB time=00:00:12.87 bitrate=6746.4kbits/s speed=0.796x    frame=  361 fps= 22 q=25.0 size=   10604kB time=00:00:13.75 bitrate=6317.2kbits/s speed=0.824x    frame=  382 fps= 22 q=26.0 size=   10604kB time=00:00:14.62 bitrate=5939.2kbits/s speed=0.85x    frame=  403 fps= 23 q=27.0 size=   10604kB time=00:00:15.50 bitrate=5604.0kbits/s speed=0.875x    frame=  422 fps= 23 q=26.0 size=   15623kB time=00:00:16.29 bitrate=7855.1kbits/s speed=0.894x    frame=  443 fps= 24 q=31.0 size=   15623kB time=00:00:17.16 bitrate=7454.7kbits/s speed=0.916x    frame=  464 fps= 24 q=32.0 size=   16923kB time=00:00:18.04 bitrate=7683.5kbits/s speed=0.937x    frame=  485 fps= 25 q=30.0 size=   16923kB time=00:00:18.91 bitrate=7328.1kbits/s speed=0.957x    frame=  500 fps= 25 q=32.0 Lsize=   20292kB time=00:00:20.79 bitrate=7994.8kbits/s speed=1.03x    
video:20288kB audio:0kB subtitle:0kB other streams:0kB global headers:0kB muxing overhead: 0.023871%
bench: utime=0.940s
bench: maxrss=1194072kB
